<svg width="93" height="103" viewBox="0 0 93 103" fill="none" xmlns="http://www.w3.org/2000/svg">
<rect y="14" width="85" height="85" rx="42.5" fill="url(#paint0_linear)"/>
<path d="M19.3406 46.5158C18.5488 48.628 19.1671 51.0106 20.8877 52.4701C24.1474 55.7322 30.8514 67.508 34.1698 75.806C36.4345 81.4656 41.407 87.0205 45.1796 90.6852C46.8032 92.283 47.7147 94.4671 47.71 96.7458V97.3704C47.71 100.2 50.0035 102.494 52.8334 102.494H80.156C82.9858 102.494 85.2794 100.2 85.2794 97.3704V92.1243C85.2637 91.6905 85.4287 91.2691 85.7351 90.9619C92.0381 85.1983 92.11 75.5769 92.11 75.1704V48.1363C92.1733 44.4794 89.4162 41.3877 85.7765 41.0344C84.4085 40.9445 83.0452 41.2689 81.864 41.9646V39.3091C81.8781 36.8483 80.5601 34.5727 78.4182 33.3602C76.2771 32.1478 73.6474 32.1884 71.5446 33.4673C71.3257 31.1636 69.942 29.1327 67.8791 28.086C65.8153 27.0393 63.36 27.1213 61.3713 28.3049V25.4766C65.6098 23.0713 68.2207 18.567 68.2027 13.6938C68.2027 6.14863 62.0858 0.0324707 54.5406 0.0324707C46.9955 0.0324707 40.8793 6.14863 40.8793 13.6938C40.8613 18.567 43.4723 23.0713 47.71 25.4766V52.9704C47.7584 54.9865 47.4841 56.9963 46.897 58.9255C46.7141 59.4954 46.2474 59.93 45.6658 60.0731C45.1186 60.2115 44.5385 60.059 44.1289 59.6697C42.7953 58.3979 41.6102 56.9783 40.5979 55.4383C37.6344 51.0052 30.1776 42.7244 25.51 42.7244C22.8881 42.6697 20.4765 44.1519 19.3406 46.5158ZM44.2947 13.6938C44.2947 8.03492 48.8818 3.4478 54.5406 3.4478C60.1995 3.4478 64.7866 8.03492 64.7866 13.6938C64.803 16.6158 63.5585 19.4027 61.3713 21.3413V13.6938C61.3713 9.9212 58.3132 6.86312 54.5406 6.86312C50.7681 6.86312 47.71 9.9212 47.71 13.6938V21.3413C45.5235 19.4027 44.2782 16.6158 44.2947 13.6938ZM37.7509 57.334C38.9086 59.0897 40.2626 60.7079 41.7861 62.1579C43.0423 63.3462 44.8192 63.8097 46.496 63.386C48.2048 62.96 49.5767 61.6889 50.1333 60.0184C50.84 57.7373 51.1753 55.3578 51.1253 52.9704V13.6938C51.1253 11.8075 52.6543 10.2784 54.5406 10.2784C56.4269 10.2784 57.956 11.8075 57.956 13.6938V49.5551C57.956 50.4986 58.7205 51.2631 59.664 51.2631C60.6068 51.2631 61.3713 50.4986 61.3713 49.5551V34.1865C61.3713 32.3002 62.9011 30.7712 64.7866 30.7712C66.6729 30.7712 68.2027 32.3002 68.2027 34.1865V49.5551C68.2027 50.4986 68.9672 51.2631 69.91 51.2631C70.8535 51.2631 71.618 50.4986 71.618 49.5551V39.3091C71.618 37.4228 73.1471 35.8938 75.0334 35.8938C76.9197 35.8938 78.4487 37.4228 78.4487 39.3091V51.2631C78.4487 52.2059 79.2132 52.9704 80.156 52.9704C81.0995 52.9704 81.864 52.2059 81.864 51.2631V47.8478C81.8617 46.9418 82.2228 46.0725 82.8662 45.4347C83.5705 44.7366 84.5406 44.3746 85.5303 44.4411C87.3751 44.6819 88.74 46.2766 88.6947 48.1363V75.1704C88.6947 75.2541 88.6079 83.7091 83.4282 88.4432C82.4159 89.3977 81.8484 90.7329 81.864 92.1243V97.3704C81.864 98.314 81.0995 99.0785 80.156 99.0785H52.8334C51.8898 99.0785 51.1253 98.314 51.1253 97.3704V96.7458C51.1276 93.5447 49.8417 90.4772 47.5583 88.2345C44.6652 85.4258 39.491 79.9076 37.3428 74.5357C33.8282 65.7546 26.8748 53.6278 23.3024 50.0554C22.4894 49.2432 22.2174 48.4912 22.4941 47.822C23.1132 46.7495 24.2717 46.103 25.51 46.1398C27.8309 46.1398 34.1237 51.8932 37.7509 57.334Z" fill="#5C5C5C"/>
<path d="M83.572 73.4618C84.5156 73.4618 85.2801 72.6973 85.2801 71.7537V61.5077C85.2801 60.565 84.5156 59.8005 83.572 59.8005C82.6293 59.8005 81.8647 60.565 81.8647 61.5077V71.7537C81.8647 72.6973 82.6293 73.4618 83.572 73.4618Z" fill="#5C5C5C"/>
<path d="M81.8628 83.7071C82.3154 83.7071 82.75 83.5273 83.0697 83.2068C84.3689 82.0046 85.1593 80.3504 85.2781 78.5838C85.2765 77.6613 84.5339 76.9117 83.6115 76.9007C82.6789 76.8827 81.9026 77.6129 81.8628 78.5447C81.7346 79.4116 81.3077 80.2066 80.655 80.7921C80.1672 81.2807 80.021 82.0147 80.2852 82.6526C80.5495 83.2913 81.1717 83.7071 81.8628 83.7071Z" fill="#5C5C5C"/>
<path d="M56.2471 95.662H57.9544C58.8979 95.662 59.6624 94.8975 59.6624 93.954C59.6624 93.0112 58.8979 92.2467 57.9544 92.2467H56.2471C55.3036 92.2467 54.5391 93.0112 54.5391 93.954C54.5391 94.8975 55.3036 95.662 56.2471 95.662Z" fill="#5C5C5C"/>
<path d="M64.7864 95.662H76.7404C77.6839 95.662 78.4485 94.8975 78.4485 93.954C78.4485 93.0112 77.6839 92.2467 76.7404 92.2467H64.7864C63.8436 92.2467 63.0791 93.0112 63.0791 93.954C63.0791 94.8975 63.8436 95.662 64.7864 95.662Z" fill="#5C5C5C"/>
<path d="M40.8793 28.2746C41.561 28.2746 42.177 27.8704 42.4475 27.2451C42.7179 26.6197 42.5913 25.8935 42.1246 25.3971C36.2078 19.1433 35.8865 9.45864 41.3765 2.82654C41.7822 2.3583 41.9026 1.70712 41.6915 1.12474C41.4797 0.542365 40.9692 0.120237 40.3571 0.0217402C39.7451 -0.0767562 39.1283 0.164013 38.7445 0.651023C32.1593 8.60891 32.5407 20.2284 39.6348 27.7368C39.9577 28.08 40.4079 28.2746 40.8793 28.2746Z" fill="#5C5C5C"/>
<path d="M70.482 23.7508C70.8845 23.9572 71.3536 23.9955 71.7843 23.8563C72.2158 23.7172 72.5738 23.4131 72.7802 23.0097C76.5137 15.7397 75.5537 6.94385 70.3397 0.651023C69.9566 0.164013 69.3391 -0.0767562 68.727 0.0217402C68.1157 0.120237 67.6052 0.542365 67.3934 1.12474C67.1815 1.70712 67.3019 2.3583 67.7084 2.82654C72.0532 8.06875 72.8529 15.3966 69.7424 21.4525C69.3117 22.2913 69.6432 23.3201 70.482 23.7508Z" fill="#5C5C5C"/>
<defs>
<linearGradient id="paint0_linear" x1="83.895" y1="16.0556" x2="-11.5335" y2="44.1824" gradientUnits="userSpaceOnUse">
<stop stop-color="#FFC000"/>
<stop offset="1" stop-color="#FF8A00"/>
</linearGradient>
</defs>
</svg>
